<svg width="193" height="103" viewBox="0 0 193 103" fill="none" xmlns="http://www.w3.org/2000/svg">
<g filter="url(#filter0_d_96_89)">
<path d="M20 31C20 24.9249 24.9249 20 31 20H154C160.075 20 165 24.9249 165 31V64C165 70.0751 160.075 75 154 75H31C24.9249 75 20 70.0751 20 64V31Z" fill="url(#paint0_radial_96_89)" shape-rendering="crispEdges"/>
<path d="M31 19C24.3726 19 19 24.3726 19 31V64C19 70.6274 24.3726 76 31 76H154C160.627 76 166 70.6274 166 64V31C166 24.3726 160.627 19 154 19H31Z" stroke="url(#paint1_linear_96_89)" stroke-width="2" shape-rendering="crispEdges"/>
</g>
<defs>
<filter id="filter0_d_96_89" x="0.799999" y="0.799999" width="191.4" height="101.4" filterUnits="userSpaceOnUse" color-interpolation-filters="sRGB">
<feFlood flood-opacity="0" result="BackgroundImageFix"/>
<feColorMatrix in="SourceAlpha" type="matrix" values="0 0 0 0 0 0 0 0 0 0 0 0 0 0 0 0 0 0 127 0" result="hardAlpha"/>
<feOffset dx="4" dy="4"/>
<feGaussianBlur stdDeviation="10.6"/>
<feComposite in2="hardAlpha" operator="out"/>
<feColorMatrix type="matrix" values="0 0 0 0 0.509804 0 0 0 0 0.87451 0 0 0 0 0.890196 0 0 0 0.3 0"/>
<feBlend mode="normal" in2="BackgroundImageFix" result="effect1_dropShadow_96_89"/>
<feBlend mode="normal" in="SourceGraphic" in2="effect1_dropShadow_96_89" result="shape"/>
</filter>
<radialGradient id="paint0_radial_96_89" cx="0" cy="0" r="1" gradientUnits="userSpaceOnUse" gradientTransform="translate(39.7727 15.2194) rotate(43.2015) scale(89.3314 114.401)">
<stop stop-color="#3409E5"/>
<stop offset="0.5" stop-color="#233281" stop-opacity="0.5"/>
<stop offset="1" stop-color="#03011E" stop-opacity="0.9"/>
</radialGradient>
<linearGradient id="paint1_linear_96_89" x1="92.5" y1="20" x2="92.5" y2="75" gradientUnits="userSpaceOnUse">
<stop stop-color="#D9D9D9"/>
<stop offset="1" stop-color="#737373"/>
</linearGradient>
</defs>
</svg>
